# xmcd CD database file
# Copyright (C) 1997 Ti Kan
#
# Track frame offsets:
#  150
#  22507
#  46575
#  70925
#  97700
#  121425
#  149005
#  171312
#  195030
#  213997
#  227467
#  251417
#
# Disc length: 3668 seconds
#
# Revision: 1
# Processed by: cddbd v1.4b41PL1 Copyright (c) Steve Scherf et al.
# Submitted via: CDWizzard Release:4.30
#
DISCID=8e0e520c
DTITLE=C. C. CATCH - Super Disco Hits
DYEAR=1900
DGENRE=
TTITLE0=Heartbreak Hotel
TTITLE1=One Night's Not Enough
TTITLE2=Back Seat Of Your Cadillac
TTITLE3=I Can Lose My Heart Tonight
TTITLE4=Soul Survior
TTITLE5=Are You Man Enough
TTITLE6=Cause You Are Young
TTITLE7=Heaven And Hell
TTITLE8=House Of Mystic Lights
TTITLE9=Hollywood Nights
TTITLE10=Midnight Gambler
TTITLE11=You Shot A Hole In My Soul
EXTD=
EXTT0=
EXTT1=
EXTT2=
EXTT3=
EXTT4=
EXTT5=
EXTT6=
EXTT7=
EXTT8=
EXTT9=
EXTT10=
EXTT11=
PLAYORDER=
